<svg xmlns="http://www.w3.org/2000/svg" viewBox="0 0 480 560" width="720" height="840" style="background:#1a1a1a;border-radius:12px">
    <text x="240" y="24" text-anchor="middle" fill="#ccc" font-size="15" font-weight="600" font-family="system-ui, -apple-system, sans-serif">Only completeness</text>
    <polygon points="240,232.5 207.5,265 240,297.5 272.5,265" fill="none" stroke="#333" stroke-width="0.5" stroke-dasharray="3,3" />
    <polygon points="240,200 175,265 240,330 305,265" fill="none" stroke="#333" stroke-width="0.5" stroke-dasharray="3,3" />
    <polygon points="240,167.5 142.5,265 239.99999999999997,362.5 337.5,265" fill="none" stroke="#333" stroke-width="0.5" stroke-dasharray="3,3" />
    <polygon points="240,135 110,265 239.99999999999997,395 370,265.00000000000006" fill="none" stroke="#333" stroke-width="0.5" stroke-dasharray="none" />
    <line x1="240" y1="265" x2="240" y2="135" stroke="#444" stroke-width="0.5" />
    <line x1="240" y1="265" x2="110" y2="265" stroke="#444" stroke-width="0.5" />
    <line x1="240" y1="265" x2="239.99999999999997" y2="395" stroke="#444" stroke-width="0.5" />
    <line x1="240" y1="265" x2="370" y2="265.00000000000006" stroke="#444" stroke-width="0.5" />
    <polygon points="240,148 214,265 240,284.5 266,265" fill="#ef444420" stroke="#ef4444" stroke-width="2" />
    <circle cx="240" cy="148" r="4" fill="#ef4444" />
    <circle cx="214" cy="265" r="4" fill="#ef4444" />
    <circle cx="240" cy="284.5" r="4" fill="#ef4444" />
    <circle cx="266" cy="265" r="4" fill="#ef4444" />
    <text x="240" y="83" text-anchor="middle" fill="#999" font-size="12" font-family="system-ui, -apple-system, sans-serif">completeness (0.90)</text>
    <text x="104" y="270" text-anchor="start" fill="#999" font-size="12" font-family="system-ui, -apple-system, sans-serif">clarity (0.20)</text>
    <text x="239.99999999999997" y="453" text-anchor="middle" fill="#999" font-size="12" font-family="system-ui, -apple-system, sans-serif">constraints (0.15)</text>
    <text x="376" y="270.00000000000006" text-anchor="end" fill="#999" font-size="12" font-family="system-ui, -apple-system, sans-serif">specificity (0.20)</text>
    <text x="240" y="475" text-anchor="middle" fill="#ef4444" font-size="20" font-weight="bold" font-family="system-ui, -apple-system, sans-serif">0.250</text>
    <rect x="80" y="506" width="320" height="34" rx="6" fill="#ef4444" />
    <text x="240" y="529" text-anchor="middle" fill="white" font-size="14" font-weight="bold" font-family="system-ui, -apple-system, sans-serif">SKETCH</text>
  </svg>